<?xml version="1.0" encoding="UTF-8" standalone="no"?>
<!-- Generator: Adobe Illustrator 18.1.1, SVG Export Plug-In . SVG Version: 6.00 Build 0)  -->

<svg
   xmlns:dc="http://purl.org/dc/elements/1.1/"
   xmlns:cc="http://creativecommons.org/ns#"
   xmlns:rdf="http://www.w3.org/1999/02/22-rdf-syntax-ns#"
   xmlns:svg="http://www.w3.org/2000/svg"
   xmlns="http://www.w3.org/2000/svg"
   xmlns:sodipodi="http://sodipodi.sourceforge.net/DTD/sodipodi-0.dtd"
   xmlns:inkscape="http://www.inkscape.org/namespaces/inkscape"
   version="1.1"
   id="Capa_1"
   x="0px"
   y="0px"
   viewBox="0 0 48 48"
   xml:space="preserve"
   inkscape:version="0.48.4 r9939"
   width="100%"
   height="100%"
   sodipodi:docname="download.svg"><metadata
     id="metadata43"><rdf:RDF><cc:Work
         rdf:about=""><dc:format>image/svg+xml</dc:format><dc:type
           rdf:resource="http://purl.org/dc/dcmitype/StillImage" /><dc:title></dc:title></cc:Work></rdf:RDF></metadata><defs
     id="defs41" /><sodipodi:namedview
     pagecolor="#ffffff"
     bordercolor="#666666"
     borderopacity="1"
     objecttolerance="10"
     gridtolerance="10"
     guidetolerance="10"
     inkscape:pageopacity="0"
     inkscape:pageshadow="2"
     inkscape:window-width="1871"
     inkscape:window-height="1056"
     id="namedview39"
     showgrid="true"
     inkscape:zoom="10.488889"
     inkscape:cx="21.398885"
     inkscape:cy="23.063989"
     inkscape:window-x="49"
     inkscape:window-y="24"
     inkscape:window-maximized="1"
     inkscape:current-layer="Capa_1"><inkscape:grid
       type="xygrid"
       id="grid3039"
       empspacing="5"
       visible="true"
       enabled="true"
       snapvisiblegridlinesonly="true" /></sodipodi:namedview><g
     id="g9"
     transform="matrix(0,1,-1,0,90,48)" /><g
     id="g11"
     transform="matrix(0,1,-1,0,90,48)" /><g
     id="g13"
     transform="matrix(0,1,-1,0,90,48)" /><g
     id="g15"
     transform="matrix(0,1,-1,0,90,48)" /><g
     id="g17"
     transform="matrix(0,1,-1,0,90,48)" /><g
     id="g19"
     transform="matrix(0,1,-1,0,90,48)" /><g
     id="g21"
     transform="matrix(0,1,-1,0,90,48)" /><g
     id="g23"
     transform="matrix(0,1,-1,0,90,48)" /><g
     id="g25"
     transform="matrix(0,1,-1,0,90,48)" /><g
     id="g27"
     transform="matrix(0,1,-1,0,90,48)" /><g
     id="g29"
     transform="matrix(0,1,-1,0,90,48)" /><g
     id="g31"
     transform="matrix(0,1,-1,0,90,48)" /><g
     id="g33"
     transform="matrix(0,1,-1,0,90,48)" /><g
     id="g35"
     transform="matrix(0,1,-1,0,90,48)" /><g
     id="g37"
     transform="matrix(0,1,-1,0,90,48)" /><g
     transform="matrix(0,-0.48728694,-0.48728694,0,45.927912,45.927912)"
     id="g3041"
     style="fill:#0c7618;fill-opacity:1"><g
       id="g3043"
       style="fill:#0c7618;fill-opacity:1"><path
         inkscape:connector-curvature="0"
         id="path3045"
         d="m 70,60 c -3.436,0 -6.592,1.168 -9.121,3.112 L 34.783,47.455 C 34.914,46.654 35,45.837 35,45 35,44.161 34.914,43.346 34.783,42.544 L 60.879,26.887 C 63.408,28.833 66.564,30 70,30 78.283,30 85,23.283 85,15 85,6.717 78.283,0 70,0 61.717,0 55,6.717 55,15 c 0,0.837 0.086,1.654 0.219,2.455 L 29.123,33.112 C 26.594,31.168 23.438,30 20,30 11.717,30 5,36.717 5,45 c 0,8.283 6.717,15 15,15 3.438,0 6.594,-1.167 9.123,-3.113 L 55.219,72.544 C 55.086,73.346 55,74.161 55,75 c 0,8.283 6.717,15 15,15 8.283,0 15,-6.717 15,-15 0,-8.283 -6.717,-15 -15,-15 z"
         style="fill:#0c7618;fill-opacity:1" /></g></g></svg>