<?xml version="1.0" encoding="UTF-8" standalone="no"?>
<!-- Generator: Adobe Illustrator 18.1.1, SVG Export Plug-In . SVG Version: 6.00 Build 0)  -->

<svg
   xmlns:dc="http://purl.org/dc/elements/1.1/"
   xmlns:cc="http://creativecommons.org/ns#"
   xmlns:rdf="http://www.w3.org/1999/02/22-rdf-syntax-ns#"
   xmlns:svg="http://www.w3.org/2000/svg"
   xmlns="http://www.w3.org/2000/svg"
   xmlns:sodipodi="http://sodipodi.sourceforge.net/DTD/sodipodi-0.dtd"
   xmlns:inkscape="http://www.inkscape.org/namespaces/inkscape"
   version="1.1"
   id="Capa_1"
   x="0px"
   y="0px"
   viewBox="0 0 48 48"
   xml:space="preserve"
   inkscape:version="0.48.4 r9939"
   width="100%"
   height="100%"
   sodipodi:docname="icon.svg"
   inkscape:export-filename="/home/gelin/work/bitbucket/shareopen/app/src/main/res/mipmap-xxhdpi/shareopen.png"
   inkscape:export-xdpi="270"
   inkscape:export-ydpi="270"><metadata
     id="metadata43"><rdf:RDF><cc:Work
         rdf:about=""><dc:format>image/svg+xml</dc:format><dc:type
           rdf:resource="http://purl.org/dc/dcmitype/StillImage" /><dc:title></dc:title></cc:Work></rdf:RDF></metadata><defs
     id="defs41" /><sodipodi:namedview
     pagecolor="#ffffff"
     bordercolor="#666666"
     borderopacity="1"
     objecttolerance="10"
     gridtolerance="10"
     guidetolerance="10"
     inkscape:pageopacity="0"
     inkscape:pageshadow="2"
     inkscape:window-width="1871"
     inkscape:window-height="1056"
     id="namedview39"
     showgrid="true"
     inkscape:zoom="12.4894"
     inkscape:cx="24.238336"
     inkscape:cy="23.64094"
     inkscape:window-x="49"
     inkscape:window-y="24"
     inkscape:window-maximized="1"
     inkscape:current-layer="Capa_1"
     inkscape:snap-global="true"
     showguides="true"><inkscape:grid
       type="xygrid"
       id="grid3814"
       empspacing="5"
       visible="true"
       enabled="true"
       snapvisiblegridlinesonly="true" /></sodipodi:namedview><path
     style="fill:#2e3379;fill-opacity:1"
     d="m 24.032367,9.0633888 c -2.800473,0 -5.071483,2.2295392 -5.071483,4.9788702 0,0.277821 0.02899,0.553568 0.07396,0.819439 L 10.21258,20.058394 C 9.3575278,19.413132 8.2898113,19.021129 7.1274271,19.021129 c -2.8004728,0 -5.071483,2.229538 -5.071483,4.978871 0,2.749332 2.2710102,4.97887 5.071483,4.97887 1.1623842,0 2.2301007,-0.391339 3.0851529,-1.037264 l 8.822268,5.196696 c -0.04497,0.266203 -0.07396,0.540953 -0.07396,0.819439 0,2.749331 2.27101,4.97887 5.071483,4.97887 l 0,-9.957741 c -1.161707,0 -2.2301,0.392003 -3.085152,1.037265 l -8.822268,-5.196696 c 0.04429,-0.265872 0.07396,-0.541618 0.07396,-0.819439 0,-0.278484 -0.02967,-0.553236 -0.07396,-0.81944 l 8.822268,-5.196695 c 0.855052,0.645925 1.923445,1.037264 3.085152,1.037264 l 0,-9.9577402 z"
     id="path7"
     inkscape:connector-curvature="0" /><g
     id="g9"
     transform="translate(0,-42)" /><g
     id="g11"
     transform="translate(0,-42)" /><g
     id="g13"
     transform="translate(0,-42)" /><g
     id="g15"
     transform="translate(0,-42)" /><g
     id="g17"
     transform="translate(0,-42)" /><g
     id="g19"
     transform="translate(0,-42)" /><g
     id="g21"
     transform="translate(0,-42)" /><g
     id="g23"
     transform="translate(0,-42)" /><g
     id="g25"
     transform="translate(0,-42)" /><g
     id="g27"
     transform="translate(0,-42)" /><g
     id="g29"
     transform="translate(0,-42)" /><g
     id="g31"
     transform="translate(0,-42)" /><g
     id="g33"
     transform="translate(0,-42)" /><g
     id="g35"
     transform="translate(0,-42)" /><g
     id="g37"
     transform="translate(0,-42)" /><path
     id="path3819"
     d="m 24.037483,9.0633888 c 2.800473,0 5.071483,2.2295392 5.071483,4.9788702 0,0.277821 -0.02897,0.553568 -0.07396,0.819439 l 8.822268,5.196696 c 0.855052,-0.645262 1.922768,-1.037265 3.085152,-1.037265 2.800473,0 5.071483,2.229538 5.071483,4.978871 0,2.749332 -2.27101,4.97887 -5.071483,4.97887 -1.162384,0 -2.2301,-0.391339 -3.085152,-1.037264 l -8.822268,5.196696 c 0.04497,0.266203 0.07396,0.540953 0.07396,0.819439 0,2.749331 -2.27101,4.97887 -5.071483,4.97887 l 0,-9.957741 c 1.161708,0 2.230101,0.392003 3.085152,1.037265 l 8.822268,-5.196696 C 35.900613,24.553567 35.870943,24.277821 35.870943,24 c 0,-0.278484 0.02965,-0.553236 0.07396,-0.81944 l -8.822272,-5.196695 c -0.855051,0.645925 -1.923444,1.037264 -3.085152,1.037264 l 0,-9.9577402 z"
     style="fill:#ab1111;fill-opacity:1"
     inkscape:connector-curvature="0" /></svg>